<?xml version="1.0" standalone="no"?>
<!DOCTYPE svg PUBLIC "-//W3C//DTD SVG 20010904//EN"
 "http://www.w3.org/TR/2001/REC-SVG-20010904/DTD/svg10.dtd">
<svg version="1.0" xmlns="http://www.w3.org/2000/svg"
 width="466.000000pt" height="466.000000pt" viewBox="0 0 466.000000 466.000000"
 preserveAspectRatio="xMidYMid meet">
<metadata>
Created by potrace 1.11, written by Peter Selinger 2001-2013
</metadata>
<g transform="translate(0.000000,466.000000) scale(0.100000,-0.100000)"
fill="#000000" stroke="none">
<path d="M2157 3755 c-174 -33 -334 -120 -447 -242 l-66 -71 -54 10 c-83 15
-281 4 -370 -22 -160 -45 -316 -144 -405 -258 -107 -135 -152 -277 -142 -451
l6 -106 -55 -35 c-71 -44 -191 -169 -231 -240 -59 -104 -78 -181 -77 -315 0
-138 18 -203 84 -316 105 -178 321 -321 542 -359 44 -7 481 -10 1418 -8 l1355
3 70 22 c223 71 398 212 481 388 53 110 67 183 62 305 -6 117 -30 197 -89 297
-42 70 -159 188 -226 228 l-50 29 5 121 c5 136 -9 208 -59 309 -96 194 -271
329 -510 393 -63 17 -285 25 -370 13 -34 -5 -40 -1 -75 42 -93 111 -251 207
-409 249 -106 27 -283 34 -388 14z m348 -181 c152 -40 305 -151 375 -271 l34
-60 71 21 c55 16 97 21 200 21 117 0 139 -3 219 -29 104 -34 214 -104 277
-174 23 -26 58 -81 78 -122 35 -73 36 -78 36 -190 0 -102 -3 -122 -27 -177
l-27 -63 92 -44 c205 -99 314 -244 325 -433 14 -241 -164 -453 -442 -523 -77
-20 -111 -20 -1396 -20 -1280 0 -1319 1 -1394 20 -147 37 -267 114 -346 219
-199 264 -84 605 251 748 35 14 65 27 66 28 1 0 -11 39 -27 85 -85 245 21 481
274 606 120 59 211 77 346 71 58 -3 135 -14 171 -25 l66 -18 39 64 c21 35 66
89 99 119 69 63 210 136 295 152 30 6 64 13 75 15 37 9 210 -4 270 -20z"/>
<path d="M2195 2696 c-194 -92 -230 -353 -69 -495 79 -69 195 -90 300 -54 74
25 157 113 180 188 42 148 -24 298 -160 361 -72 33 -181 33 -251 0z"/>
</g>
</svg>
